<svg width="68" height="54" viewBox="0 0 68 54" fill="none" xmlns="http://www.w3.org/2000/svg">
<path d="M17.1 33.016H4.572L1.908 40H1.08L10.476 15.412H11.196L20.556 40H19.728L17.1 33.016ZM16.848 32.368L10.836 16.564L4.824 32.368H16.848ZM52.2239 14.656C56.5919 14.656 59.9159 15.76 62.1959 17.968C64.4759 20.176 65.6159 23.296 65.6159 27.328C65.6159 31.36 64.4759 34.48 62.1959 36.688C59.9159 38.896 56.5919 40 52.2239 40H45.5639V14.656H52.2239ZM52.2239 39.352C56.3999 39.352 59.5559 38.296 61.6919 36.184C63.8279 34.072 64.8959 31.12 64.8959 27.328C64.8959 23.536 63.8279 20.584 61.6919 18.472C59.5559 16.36 56.3999 15.304 52.2239 15.304H46.2839V39.352H52.2239Z" fill="black"/>
<rect x="27" y="16" width="8" height="25" fill="#7A7FED"/>
</svg>
